<svg width="232.280029" height="58.405762" viewBox="0 0 232.28 58.4058" fill="none" xmlns="http://www.w3.org/2000/svg" xmlns:xlink="http://www.w3.org/1999/xlink">
	<desc>
			Created with Pixso.
	</desc>
	<defs>
		<clipPath id="clip2_4537">
			<rect id="Frame 118" rx="0.000000" width="39.279999" height="57.405998" transform="translate(0.500000 0.500000)" fill="white" fill-opacity="0"/>
		</clipPath>
	</defs>
	<g clip-path="url(#clip2_4537)">
		<path id="Vector 1" d="M21.39 1C-7.03 2.71 -7.24 59.68 21.39 57.96C6.22 46.56 6.75 11.31 21.39 1ZM14.02 28.72C12.28 18.15 13.68 13.68 20.43 8.3C18.06 11.83 16.98 13.85 16.58 17.65C44.72 16.91 48.21 50 24.81 57.42C20.71 54.63 18.85 52.67 16.15 48.61C42.01 47.42 27.24 19.6 14.02 28.72Z" fill="#A7CE3C" fill-opacity="1.000000" fill-rule="evenodd"/>
	</g>
	<path id="butalent" d="M151.8 13.2L151.8 44.7L157.97 44.7L157.97 12.16L151.8 13.2ZM112.94 43.3C114.29 44.47 116.27 45.06 118.88 45.06C119.54 45.06 120.34 45 121.27 44.88C122.23 44.76 123.02 44.59 123.65 44.38L123.65 39.3C123.05 39.51 122.5 39.66 121.99 39.75C121.51 39.81 120.97 39.84 120.37 39.84C119.17 39.84 118.33 39.61 117.85 39.16C117.37 38.68 117.13 37.9 117.13 36.82L117.13 26.38L123.83 26.38L123.83 21.25L117.13 21.25L117.13 13.87L110.96 15.27L110.96 21.25L106.15 21.25L106.15 26.38L110.96 26.38L110.96 38.08Q110.96 40.98 112.38 42.71Q112.64 43.03 112.94 43.3ZM220.35 43.3C221.7 44.47 223.68 45.06 226.29 45.06C226.95 45.06 227.74 45 228.67 44.88C229.63 44.76 230.43 44.59 231.06 44.38L231.06 39.3C230.46 39.51 229.9 39.66 229.39 39.75C228.91 39.81 228.37 39.84 227.77 39.84C226.57 39.84 225.73 39.61 225.25 39.16C224.77 38.68 224.53 37.9 224.53 36.82L224.53 26.38L231.24 26.38L231.24 21.25L224.53 21.25L224.53 13.87L218.37 15.27L218.37 21.25L213.55 21.25L213.55 26.38L218.37 26.38L218.37 38.08C218.37 40.36 219.03 42.1 220.35 43.3ZM129.86 44.2C131.15 44.8 132.63 45.1 134.31 45.1C135.63 45.1 136.85 44.94 137.96 44.61C139.07 44.28 140.1 43.75 141.06 43.03L141.06 44.7L147.14 44.7L147.14 29.49C147.14 26.73 146.25 24.6 144.48 23.1Q141.87 20.8 137.15 20.8C135.44 20.8 133.73 21.01 132.02 21.43C130.34 21.85 128.57 22.48 126.71 23.32L128.96 27.87C130.46 27.21 131.78 26.73 132.92 26.43C134.06 26.1 135.12 25.93 136.11 25.93C137.73 25.93 138.96 26.28 139.8 26.97C140.64 27.66 141.06 28.68 141.06 30.03L141.06 31.74C139.26 31.11 137.34 30.79 135.3 30.79Q130.85 30.79 128.28 32.68C126.6 33.91 125.76 35.65 125.76 37.9Q125.76 39.47 126.36 40.77Q126.56 41.22 126.84 41.64C127.56 42.72 128.57 43.57 129.86 44.2ZM189.16 21.25L189.16 44.7L195.32 44.7L195.32 28.45C195.86 27.7 196.54 27.13 197.35 26.74C198.16 26.32 199.09 26.11 200.14 26.11C201.64 26.11 202.82 26.56 203.69 27.46C204.56 28.33 205 29.53 205 31.06L205 44.7L211.16 44.7L211.16 30.16Q211.16 27.37 209.99 25.3Q209.41 24.25 208.58 23.42Q207.76 22.6 206.71 22.02C205.33 21.21 203.72 20.8 201.89 20.8C199.28 20.8 197.09 21.6 195.32 23.19L195.32 21.25L189.16 21.25ZM167.87 43.53C169.79 44.61 171.92 45.15 174.26 45.15C176.15 45.15 177.85 44.88 179.35 44.34Q181.64 43.53 183.8 41.77L179.75 38.08C179.12 38.68 178.36 39.15 177.46 39.48C176.59 39.81 175.63 39.97 174.58 39.97C173.53 39.97 172.54 39.76 171.61 39.34C170.71 38.92 169.94 38.34 169.31 37.59C168.71 36.84 168.28 36 168.01 35.07L185.38 35.07L185.38 33.45C185.38 31.05 184.87 28.9 183.85 27.01C182.86 25.12 181.49 23.62 179.75 22.51C178.01 21.4 176.02 20.85 173.77 20.85C171.52 20.85 169.48 21.39 167.65 22.47C165.82 23.55 164.36 25 163.28 26.83Q162.95 27.42 162.68 28.04Q161.71 30.31 161.71 33Q161.71 35.44 162.56 37.54Q162.9 38.38 163.37 39.16Q164.09 40.35 165.03 41.33Q166.27 42.61 167.87 43.53ZM179.3 30.66L167.92 30.66Q168.28 29.22 169.04 28.18C169.58 27.46 170.24 26.91 171.02 26.52C171.8 26.13 172.67 25.93 173.63 25.93C174.56 25.93 175.4 26.14 176.15 26.56C176.93 26.95 177.59 27.51 178.13 28.23C178.7 28.92 179.09 29.73 179.3 30.66ZM132.78 39.93C132 39.39 131.61 38.67 131.61 37.77C131.61 36.87 132 36.16 132.78 35.65C133.59 35.11 134.7 34.84 136.11 34.84C137.04 34.84 137.91 34.92 138.72 35.07C139.53 35.22 140.31 35.44 141.06 35.74L141.06 39.16C140.37 39.67 139.59 40.06 138.72 40.33C137.85 40.57 136.91 40.69 135.89 40.69C134.6 40.69 133.56 40.44 132.78 39.93Z" fill="#3F419A" fill-opacity="1.000000" fill-rule="evenodd"/>
	<path id="butalent" d="M52.7 13.2L52.7 44.7L58.78 44.7L58.78 43.08C59.71 43.71 60.73 44.19 61.84 44.52C62.95 44.85 64.09 45.01 65.26 45.01Q67.75 45.01 69.9 44.15Q70.66 43.85 71.38 43.44Q72.89 42.55 74.06 41.33Q75.02 40.33 75.74 39.12Q76.22 38.3 76.56 37.44Q77.36 35.37 77.36 33Q77.36 30.5 76.48 28.37Q76.17 27.63 75.74 26.92Q74.93 25.5 73.8 24.37Q72.77 23.34 71.47 22.56Q70.64 22.06 69.76 21.72Q67.75 20.94 65.44 20.94C62.92 20.94 60.73 21.67 58.87 23.14L58.87 12.16L52.7 13.2ZM85.37 43.98C86.78 44.76 88.38 45.15 90.18 45.15C92.79 45.15 95 44.37 96.8 42.81L96.8 44.7L102.96 44.7L102.96 21.25L96.8 21.25L96.8 37.5C96.26 38.25 95.57 38.83 94.73 39.25Q93.51 39.84 91.98 39.84C90.48 39.84 89.28 39.39 88.38 38.49C87.51 37.59 87.08 36.39 87.08 34.89L87.08 21.25L80.91 21.25L80.91 35.79Q80.91 38.48 82.04 40.56Q82.06 40.6 82.08 40.65Q82.77 41.83 83.72 42.74Q84.46 43.44 85.37 43.98ZM67.91 38.89C66.89 39.49 65.74 39.79 64.45 39.79Q63.12 39.79 61.9 39.42Q61.6 39.33 61.3 39.21C60.34 38.82 59.53 38.28 58.87 37.59L58.87 28.45Q59.5 27.77 60.25 27.31Q60.75 27 61.3 26.79Q62.74 26.2 64.45 26.2Q66.01 26.2 67.3 26.79Q67.62 26.93 67.91 27.1C68.96 27.67 69.79 28.48 70.39 29.53Q70.57 29.83 70.71 30.15Q71.29 31.44 71.29 33C71.29 34.29 70.99 35.44 70.39 36.46C69.79 37.48 68.96 38.29 67.91 38.89Z" fill="#A7CE3C" fill-opacity="1.000000" fill-rule="evenodd"/>
</svg>
